G04 ================== begin FILE IDENTIFICATION RECORD ==================*
G04 Layout Name:  E:/Orcad_16.5_Study/SSD1332_OLED_Module/allegro/SSD1332.brd*
G04 Film Name:    TOP*
G04 File Format:  Gerber RS274X*
G04 File Origin:  Cadence Allegro 16.6-P004*
G04 Origin Date:  Wed Aug 08 05:21:20 2018*
G04 *
G04 Layer:  ETCH/TOP*
G04 Layer:  PIN/TOP*
G04 Layer:  VIA CLASS/TOP*
G04 *
G04 Offset:    (0.000 0.000)*
G04 Mirror:    No*
G04 Mode:      Positive*
G04 Rotation:  0*
G04 FullContactRelief:  No*
G04 UndefLineWidth:     0.000*
G04 ================== end FILE IDENTIFICATION RECORD ====================*
%FSLAX35Y35*MOMM*%
%IR0*IPPOS*OFA0.00000B0.00000*MIA0B0*SFA1.00000B1.00000*%
%ADD13R,1.2X.9*%
%ADD12O,.35X4.45*%
%ADD10C,1.524*%
%ADD11R,2.2X2.2*%
%ADD14C,.3*%
%ADD15C,.4*%
%ADD17C,1.782*%
%ADD16R,2.458X2.458*%
G75*
%LPD*%
G75*
G36*
G01X40100Y40100D02*
Y2759900D01*
X3159900D01*
Y40100D01*
X2927700D01*
Y1290200D01*
X2072900D01*
Y1342900D01*
X2020200D01*
Y1614300D01*
X2024500Y1614900D01*
G03X2046200Y1629600I-4539J30068D01*
G02X2063800I8800J-5170D01*
G03X2116200I26200J15400D01*
G02X2133800I8800J-5170D01*
G03X2186200I26200J15400D01*
G02X2203800I8800J-5170D01*
G03X2256200I26200J15400D01*
G02X2273800I8800J-5170D01*
G03X2326200I26200J15400D01*
G02X2343800I8800J-5170D01*
G03X2396200I26200J15400D01*
G02X2413800I8800J-5170D01*
G03X2466200I26200J15400D01*
G02X2483800I8800J-5170D01*
G03X2536200I26200J15400D01*
G02X2553800I8800J-5170D01*
G03X2606200I26200J15400D01*
G02X2623800I8800J-5170D01*
G03X2680400Y1645000I26205J15400D01*
G01Y2055000D01*
G03X2623800Y2070400I-30395J0D01*
G02X2606200I-8800J5170D01*
G03X2553800I-26200J-15400D01*
G02X2536200I-8800J5170D01*
G03X2483800I-26200J-15400D01*
G02X2466200I-8800J5170D01*
G03X2413800I-26200J-15400D01*
G02X2396200I-8800J5170D01*
G03X2343800I-26200J-15400D01*
G02X2326200I-8800J5170D01*
G03X2273800I-26200J-15400D01*
G02X2256200I-8800J5170D01*
G03X2203800I-26200J-15400D01*
G02X2186200I-8800J5170D01*
G03X2133800I-26200J-15400D01*
G02X2116200I-8800J5170D01*
G03X2063800I-26200J-15400D01*
G02X2046200I-8800J5170D01*
G03X1993800I-26200J-15400D01*
G02X1976200I-8800J5170D01*
G03X1923800I-26200J-15400D01*
G02X1906200I-8800J5170D01*
G03X1853800I-26200J-15400D01*
G02X1836200I-8800J5170D01*
G03X1783800I-26200J-15400D01*
G02X1766200I-8800J5170D01*
G03X1713800I-26200J-15400D01*
G02X1696200I-8800J5170D01*
G03X1643800I-26200J-15400D01*
G02X1626200I-8800J5170D01*
G03X1573800I-26200J-15400D01*
G02X1556200I-8800J5170D01*
G03X1503800I-26200J-15400D01*
G02X1486200I-8800J5170D01*
G03X1433800I-26200J-15400D01*
G02X1416200I-8800J5170D01*
G03X1363800I-26200J-15400D01*
G02X1346200I-8800J5170D01*
G03X1293800I-26200J-15400D01*
G02X1276200I-8800J5170D01*
G03X1223800I-26200J-15400D01*
G02X1206200I-8800J5170D01*
G03X1153800I-26200J-15400D01*
G02X1136200I-8800J5170D01*
G03X1083800I-26200J-15400D01*
G02X1066200I-8800J5170D01*
G03X1013800I-26200J-15400D01*
G02X996200I-8800J5170D01*
G03X943800I-26200J-15400D01*
G02X926200I-8800J5170D01*
G03X873800I-26200J-15400D01*
G02X856200I-8800J5170D01*
G03X803800I-26200J-15400D01*
G02X786200I-8800J5170D01*
G03X733800I-26200J-15400D01*
G02X716200I-8800J5170D01*
G03X663800I-26200J-15400D01*
G02X646200I-8800J5170D01*
G03X593800I-26200J-15400D01*
G02X576200I-8800J5170D01*
G03X519600Y2055000I-26205J-15400D01*
G01Y1645000D01*
G03X545500Y1614900I30441J0D01*
G01X549800Y1614300D01*
Y1342900D01*
X497100D01*
Y1290200D01*
X247300D01*
Y199800D01*
X605900D01*
G03X828500Y223500I105086J70215D01*
G02X847500I9500J-3796D01*
G03X894800Y164900I117529J46476D01*
G01Y40100D01*
X40100D01*
G37*
G36*
G01X828500Y316500D02*
G03X605900Y340200I-117514J-46515D01*
G01X387700D01*
Y1149800D01*
X497100D01*
Y1097100D01*
X742900D01*
Y1342900D01*
X690200D01*
Y1395300D01*
X879800D01*
Y1342900D01*
X822100D01*
Y1097100D01*
X1067900D01*
Y1342900D01*
X1010200D01*
Y1525700D01*
X755200D01*
Y1609500D01*
G02X760300Y1614600I5098J2D01*
G03X786200Y1629600I-310J30396D01*
G02X803800I8800J-5170D01*
G03X856200I26200J15400D01*
G02X873800I8800J-5170D01*
G03X926200I26200J15400D01*
G02X943800I8800J-5170D01*
G03X996200I26200J15400D01*
G02X1013800I8800J-5170D01*
G03X1066200I26200J15400D01*
G02X1083800I8800J-5170D01*
G03X1109700Y1614600I26210J15396D01*
G02X1114800Y1609500I2J-5098D01*
G01Y379300D01*
X1125000D01*
G02X1132000Y361700I-9J-10196D01*
G03X1101500Y316500I87052J-91631D01*
G02X1082500I-9500J3796D01*
G03X847500I-117500J-46500D01*
G02X828500I-9500J3796D01*
G37*
G36*
G01X2283600Y153300D02*
G03X2300200Y378300I-48590J116697D01*
G01Y763700D01*
X2072900D01*
Y992900D01*
X1827100D01*
Y763700D01*
X1665200D01*
Y817100D01*
X1782900D01*
Y932900D01*
X1665200D01*
Y1028000D01*
G02X1680100Y1037100I10209J33D01*
G03X1754200Y1047100I29909J57913D01*
G01X1782900D01*
Y1162900D01*
X1775400D01*
Y1542500D01*
X1805200Y1572300D01*
Y1609500D01*
G02X1810300Y1614600I5098J2D01*
G03X1836200Y1629600I-310J30396D01*
G02X1853800I8800J-5170D01*
G03X1875500Y1614900I26239J15368D01*
G01X1879800Y1614300D01*
Y1342900D01*
X1827100D01*
Y1097100D01*
X2072900D01*
Y1149800D01*
X2787300D01*
Y133700D01*
X2287500D01*
G02X2283600Y153300I19J10192D01*
G37*
G36*
G01X1385200Y636700D02*
Y1609500D01*
G02X1390300Y1614600I5098J2D01*
G03X1416200Y1629600I-310J30396D01*
G02X1433800I8800J-5170D01*
G03X1459700Y1614600I26210J15396D01*
G02X1464800Y1609500I2J-5098D01*
G01Y636700D01*
X1385200D01*
G37*
%LPC*%
G75*
G54D17*
X2489000Y270000D03*
G54D16*
X620000Y870000D03*
X945000D03*
%LPD*%
G75*
G54D10*
X965000Y270000D03*
X711000D03*
X1727000D03*
X1473000D03*
X1219000D03*
X2489000D03*
X2235000D03*
X1981000D03*
G54D11*
X620000Y870000D03*
X945000D03*
X620000Y1220000D03*
X945000D03*
X1950000Y870000D03*
Y1220000D03*
G54D12*
X1110000Y1850000D03*
X1040000D03*
X970000D03*
X900000D03*
X830000D03*
X760000D03*
X690000D03*
X620000D03*
X550000D03*
X1880000D03*
X1810000D03*
X1740000D03*
X1670000D03*
X1600000D03*
X1530000D03*
X1460000D03*
X1390000D03*
X1320000D03*
X1250000D03*
X1180000D03*
X2580000D03*
X2510000D03*
X2440000D03*
X2370000D03*
X2300000D03*
X2230000D03*
X2160000D03*
X2090000D03*
X2020000D03*
X1950000D03*
X2650000D03*
G54D13*
X1710000Y1105000D03*
Y875000D03*
G54D14*
G01X945000Y1220000D02*
Y1460500D01*
X690000D01*
Y1850000D01*
G01X1180000D02*
Y444500D01*
X1219000D01*
Y270000D01*
G01X1473000D02*
Y508000D01*
X1250000D01*
Y1850000D01*
G01X1727000Y270000D02*
Y571500D01*
X1320000D01*
Y1850000D01*
G01X1710000Y1095000D02*
Y1105000D01*
G01X1740000Y1850000D02*
Y1599300D01*
X1710200Y1569500D01*
Y1178000D01*
X1710000Y1177800D01*
Y1105000D01*
G01X1530000Y1850000D02*
Y635000D01*
X1981000D01*
Y270000D01*
G01X1600000Y1850000D02*
Y698500D01*
X2235000D01*
Y270000D01*
G54D15*
G01X711000D02*
X317500D01*
Y1220000D01*
X620000D01*
G01X965000Y270000D02*
Y63500D01*
X2857500D01*
Y1220000D01*
X1950000D01*
G01X945000Y742000D02*
Y870000D01*
G01D02*
Y998000D01*
G01X817000Y870000D02*
X945000D01*
G01D02*
X1073000D01*
G01X620000Y742000D02*
Y870000D01*
G01D02*
Y998000D01*
G01X492000Y870000D02*
X620000D01*
G01D02*
X748000D01*
G01X830000Y1609500D02*
Y1850000D01*
G01D02*
Y2090500D01*
G01X900000Y1609500D02*
Y1850000D01*
G01D02*
Y2090500D01*
G01X970000Y1609500D02*
Y1850000D01*
G01D02*
Y2090500D01*
G01X1040000Y1609500D02*
Y1850000D01*
G01D02*
Y2090500D01*
G01X1110000Y1609500D02*
Y1850000D01*
G01D02*
Y2090500D01*
G01X620000Y1850000D02*
Y1220000D01*
G01X1822000Y870000D02*
X1950000D01*
G01X1710000Y812000D02*
Y875000D01*
G01D02*
Y938000D01*
G01Y875000D02*
X1788000D01*
G01X1390000Y1609500D02*
Y1850000D01*
G01D02*
Y2090500D01*
G01X1460000Y1609500D02*
Y1850000D01*
G01D02*
Y2090500D01*
G01X1810000Y1609500D02*
Y1850000D01*
G01D02*
Y2090500D01*
G01X2489000Y175800D02*
Y270000D01*
G01D02*
Y364200D01*
G01X2394800Y270000D02*
X2489000D01*
G01D02*
X2583200D01*
G01X1950000Y870000D02*
Y998000D01*
G01Y870000D02*
X2078000D01*
G01X1880000Y2159000D02*
Y1850000D01*
G01X2580000Y1609500D02*
Y1850000D01*
G01D02*
Y2090500D01*
G01X1950000Y1220000D02*
Y1850000D01*
G01X1905000Y2159000D02*
X1880000D01*
M02*
